<?xml version="1.0" encoding="iso-8859-1"?>
<!-- Uploaded to: SVG Repo, www.svgrepo.com, Generator: SVG Repo Mixer Tools -->
<svg height="800px" width="800px" version="1.1" id="Layer_1" xmlns="http://www.w3.org/2000/svg" xmlns:xlink="http://www.w3.org/1999/xlink" 
	 viewBox="0 0 512 512" xml:space="preserve">
<path style="fill:#DEDEE0;" d="M462.382,1.772c-8.698-3.601-18.707-1.61-25.363,5.046l-49.368,49.368L338.282,6.817
	C333.919,2.453,327.999,0,321.827,0c-6.173,0-12.091,2.451-16.457,6.817l-49.369,49.368L206.632,6.817
	C202.266,2.451,196.348,0,190.175,0c-6.173,0-12.092,2.453-16.455,6.817l-49.368,49.368L74.982,6.817
	C68.328,0.16,58.316-1.828,49.62,1.772c-8.696,3.603-14.367,12.089-14.367,21.501v465.455c0,12.853,10.42,23.273,23.273,23.273
	h197.475h197.474c12.853,0,23.273-10.42,23.273-23.273V23.273C476.747,13.86,471.078,5.374,462.382,1.772z"/>
<g>
	<path style="fill:#57565C;" d="M360.384,356.848H256.001H151.618c-12.853,0-23.273,10.42-23.273,23.273
		c0,12.853,10.42,23.273,23.273,23.273h104.383h104.383c12.853,0,23.273-10.42,23.273-23.273
		C383.656,367.268,373.238,356.848,360.384,356.848z"/>
	<path style="fill:#57565C;" d="M267.293,263.758h-11.292H151.618c-12.853,0-23.273,10.42-23.273,23.273
		c0,12.853,10.42,23.273,23.273,23.273h104.383h11.292c12.853,0,23.273-10.42,23.273-23.273
		C290.565,274.178,280.147,263.758,267.293,263.758z"/>
	<path style="fill:#57565C;" d="M267.293,170.667h-11.292H151.618c-12.853,0-23.273,10.42-23.273,23.273
		c0,12.853,10.42,23.273,23.273,23.273h104.383h11.292c12.853,0,23.273-10.42,23.273-23.273
		C290.565,181.087,280.147,170.667,267.293,170.667z"/>
</g>
<path style="fill:#C3C3C7;" d="M256.001,512V403.394H151.618c-12.853,0-23.273-10.42-23.273-23.273
	c0-12.853,10.42-23.273,23.273-23.273h104.383v-46.545H151.618c-12.853,0-23.273-10.42-23.273-23.273
	c0-12.853,10.42-23.273,23.273-23.273h104.383v-46.545H151.618c-12.853,0-23.273-10.42-23.273-23.273
	c0-12.853,10.42-23.273,23.273-23.273h104.383V56.185L206.632,6.817C202.266,2.451,196.348,0,190.175,0
	c-6.173,0-12.092,2.453-16.455,6.817l-49.368,49.368L74.982,6.817C68.328,0.16,58.316-1.828,49.62,1.772
	c-8.696,3.603-14.367,12.089-14.367,21.501v465.455c0,12.853,10.42,23.273,23.273,23.273H256.001z"/>
</svg>